<svg xmlns="http://www.w3.org/2000/svg" viewBox="0 0 64 64" role="img" aria-label="Deducktion favicon">
  <defs>
    <radialGradient id="bg" cx="34%" cy="24%" r="74%">
      <stop offset="0" stop-color="#164e63" />
      <stop offset="0.48" stop-color="#0f172a" />
      <stop offset="1" stop-color="#020617" />
    </radialGradient>
    <linearGradient id="duck" x1="18" x2="44" y1="18" y2="50" gradientUnits="userSpaceOnUse">
      <stop offset="0" stop-color="#fde68a" />
      <stop offset="0.55" stop-color="#facc15" />
      <stop offset="1" stop-color="#d97706" />
    </linearGradient>
    <linearGradient id="glass" x1="34" x2="58" y1="34" y2="58" gradientUnits="userSpaceOnUse">
      <stop offset="0" stop-color="#e0f2fe" />
      <stop offset="1" stop-color="#38bdf8" />
    </linearGradient>
    <filter id="shadow" x="-20%" y="-20%" width="140%" height="140%">
      <feDropShadow dx="0" dy="3" stdDeviation="2" flood-color="#000" flood-opacity="0.45" />
    </filter>
  </defs>

  <rect width="64" height="64" rx="16" fill="url(#bg)" />
  <path d="M9 48c8-7 15-9 24-8 9 1 15 4 22 9" fill="none" stroke="#22d3ee" stroke-width="3" stroke-linecap="round" opacity="0.35" />
  <path d="M15 15h29l-4 8H19z" fill="#111827" stroke="#64748b" stroke-width="2" stroke-linejoin="round" />
  <path d="M25 8h17l4 7H18z" fill="#1f2937" stroke="#94a3b8" stroke-width="2" stroke-linejoin="round" />

  <g filter="url(#shadow)">
    <path d="M19 39c0-8 6-14 14-14h2c8 0 14 6 14 14 0 7-5 12-13 13H24c-4 0-7-3-7-7 0-2 1-4 2-6z" fill="url(#duck)" />
    <path d="M18 33c-4 1-7 4-8 8 4 2 8 2 12-1" fill="#f59e0b" stroke="#92400e" stroke-width="1.6" stroke-linejoin="round" />
    <circle cx="31" cy="31" r="2.2" fill="#111827" />
    <path d="M39 32c5-2 9-1 12 3-3 4-8 5-13 2" fill="#fb923c" stroke="#9a3412" stroke-width="1.6" stroke-linejoin="round" />
    <path d="M21 42c7 3 15 3 23 0" fill="none" stroke="#fef3c7" stroke-width="2" stroke-linecap="round" opacity="0.7" />
  </g>

  <g filter="url(#shadow)">
    <circle cx="43" cy="43" r="8" fill="none" stroke="url(#glass)" stroke-width="4" />
    <path d="M49 49l8 8" stroke="#e0f2fe" stroke-width="5" stroke-linecap="round" />
    <path d="M49 49l8 8" stroke="#0891b2" stroke-width="2" stroke-linecap="round" />
    <circle cx="40" cy="40" r="2" fill="#f0f9ff" opacity="0.8" />
  </g>
</svg>
